# xmcd
#
# Track frame offsets:
#	150
#	13535
#	30157
#	51805
#	66950
#	84915
#	99347
#	112977
#	129772
#	147745
#	164182
#	180517
#	197117
#	212722
#	228470
#	246370
#	262940
#	276965
#
# Disc length: 3940 seconds
#
# Revision: 0
# Processed by: cddbd v1.5.2PL0 Copyright (c) Steve Scherf et al.
# Submitted via: audiograbber 1.83.01
#
DISCID=f80f6212
DTITLE=Andre  Hazes - Al 15 Jaar Gewoon Andre CD 2
DYEAR=1994
DGENRE=Smartlappen
TTITLE0=Piove
TTITLE1=Volare
TTITLE2=Jij Bent Alles
TTITLE3=De Glimlach Van Een Kind
TTITLE4=Liefde, Leven, Geven
TTITLE5=Ik Ben Een Gokker
TTITLE6=Jammer
TTITLE7=Kleine Jongen
TTITLE8=Ik Kan Je Niet Vergeten
TTITLE9=Zomer
TTITLE10='t Rode Licht
TTITLE11=De Vlieger
TTITLE12=Droomland (Duet Met Paul De Leeuw)
TTITLE13=Uit M'n Bol
TTITLE14=Ik Dacht Dat Het Uit Was
TTITLE15=Leef Je Uit
TTITLE16=Terug In De Tijd
TTITLE17=Zonder Jou (Voor Mijn Fans)
EXTD=
EXTT0=
EXTT1=
EXTT2=
EXTT3=
EXTT4=
EXTT5=
EXTT6=
EXTT7=
EXTT8=
EXTT9=
EXTT10=
EXTT11=
EXTT12=
EXTT13=
EXTT14=
EXTT15=
EXTT16=
EXTT17=
PLAYORDER=
